<svg version="1.1" id="Layer_1" xmlns="http://www.w3.org/2000/svg" xmlns:xlink="http://www.w3.org/1999/xlink" x="0px" y="0px"
	 width="100%" viewBox="0 0 1536 1024" enable-background="new 0 0 1536 1024" xml:space="preserve">
<path fill="#FEFEFE" opacity="1.000000" stroke="none" 
	d="
M1074.000000,1025.000000 
	C716.000000,1025.000000 358.500000,1025.000000 1.000000,1025.000000 
	C1.000000,683.666687 1.000000,342.333344 1.000000,1.000000 
	C513.000000,1.000000 1025.000000,1.000000 1537.000000,1.000000 
	C1537.000000,342.333344 1537.000000,683.666687 1537.000000,1025.000000 
	C1382.833374,1025.000000 1228.666626,1025.000000 1074.000000,1025.000000 
M769.871826,228.279129 
	C795.123840,229.498291 820.408264,230.262863 845.619263,232.058273 
	C873.549255,234.047302 901.136108,238.664734 927.582947,248.162933 
	C944.743042,254.325851 962.437683,260.424377 969.216675,280.722015 
	C1004.674988,268.335052 1039.966675,256.006348 1076.095825,243.385040 
	C1074.288818,242.664764 1073.398682,242.271255 1072.483032,241.950455 
	C985.911255,211.617264 899.342773,181.274597 812.758789,150.976273 
	C798.190857,145.878525 783.555359,140.974014 768.182678,135.849625 
	C735.049316,147.418198 701.910461,158.971024 668.783752,170.558777 
	C606.298828,192.416092 543.818848,214.287491 481.343353,236.171875 
	C475.108734,238.355789 468.919556,240.669479 461.601318,243.324997 
	C470.684357,246.471985 478.667297,249.114548 486.555115,252.015793 
	C491.486237,253.829544 496.274017,256.033081 500.800140,258.720154 
	C500.281525,261.528168 499.526459,263.622437 496.085358,264.663086 
	C491.151337,266.155212 489.034790,270.754578 489.860779,275.736176 
	C490.631531,280.384918 494.272888,283.679993 499.044067,284.046204 
	C503.558899,284.392731 508.175354,281.534393 509.691101,277.454010 
	C511.337585,273.021606 509.970947,267.341980 505.653748,265.281708 
	C502.128723,263.599457 501.965179,261.233246 502.745880,258.065002 
	C524.669617,265.557373 546.593323,273.049713 568.748901,280.621338 
	C570.768677,271.696533 576.035034,265.610382 582.987427,261.430847 
	C590.775940,256.748657 598.886658,252.280258 607.386658,249.161850 
	C637.937561,237.953568 669.888428,233.319931 702.157715,231.064224 
	C724.381042,229.510742 746.679932,229.037735 769.871826,228.279129 
M769.931213,344.814270 
	C803.431213,344.581360 836.838257,346.143799 869.988647,351.120117 
	C898.083130,355.337463 926.121887,360.029938 951.280762,376.236115 
	C951.280762,374.198364 951.279114,372.611389 951.281006,371.024414 
	C951.311157,345.870361 950.771240,320.697601 951.595947,295.569641 
	C952.057312,281.511841 945.780151,272.570770 934.138428,266.956207 
	C924.453735,262.285431 914.460938,257.542938 904.070679,255.198090 
	C884.160828,250.704880 863.990967,246.659637 843.709473,244.696671 
	C818.924683,242.297806 793.914246,242.230560 768.075684,240.996872 
	C755.596802,241.264633 743.112122,241.375183 730.640137,241.831406 
	C700.472290,242.934921 670.545166,246.161285 641.100952,253.016373 
	C626.627930,256.385956 612.544067,261.003693 599.866333,268.995514 
	C590.894592,274.651154 585.739563,282.149963 585.997375,293.673676 
	C586.582336,319.817230 586.181580,345.982819 586.199402,372.139435 
	C586.200195,373.341888 586.374817,374.544220 586.426270,375.205170 
	C593.830627,371.746552 600.831848,367.858337 608.256287,365.115295 
	C640.139343,353.335876 673.605408,349.662354 707.157349,347.124725 
	C727.718201,345.569580 748.385925,345.426086 769.931213,344.814270 
M940.705811,425.083405 
	C943.229309,422.272522 944.683777,419.390381 943.967102,415.218903 
	C938.842468,385.389679 911.051025,364.263916 881.082703,367.243683 
	C853.640808,369.972260 831.125671,391.826263 830.812805,415.102814 
	C830.784363,417.226257 830.023560,419.351685 829.515442,421.455109 
	C816.895142,473.704010 804.262329,525.949951 791.633240,578.196716 
	C789.498047,587.030151 787.369202,595.865234 785.377686,604.118103 
	C789.948059,607.507751 793.776489,610.347168 797.905457,613.409485 
	C845.474548,550.667725 892.861084,488.166748 940.705811,425.083405 
M599.460449,428.045868 
	C646.284302,489.822479 693.108215,551.599060 740.044006,613.523376 
	C743.242126,611.078613 745.946045,608.526733 749.088806,606.751648 
	C751.976440,605.120544 752.499939,603.323853 751.759155,600.290894 
	C741.260559,557.303589 730.811890,514.304016 720.430176,471.288361 
	C715.667847,451.556152 710.401428,431.909210 706.663696,411.979767 
	C704.420044,400.016876 699.342224,390.104156 690.704163,382.276794 
	C658.590454,353.177277 608.468628,367.300690 595.561768,408.696472 
	C593.349182,415.792694 592.401855,422.220703 599.460449,428.045868 
M757.307922,596.164978 
	C757.891846,598.040955 758.475708,599.916931 758.979736,601.536316 
	C765.720642,601.536316 772.126221,601.536316 778.848450,601.536316 
	C779.195557,600.374512 779.679810,598.986084 780.025269,597.564026 
	C793.376648,542.614380 806.622559,487.638733 820.147095,432.731750 
	C822.401184,423.580627 822.687256,414.657745 820.382080,405.633240 
	C811.898804,372.423218 770.808716,357.034363 740.410156,375.537384 
	C721.854065,386.832153 712.254089,408.128540 716.525391,426.593628 
	C729.565308,482.965576 743.512024,539.127686 757.307922,596.164978 
M1135.025879,758.390503 
	C1131.312866,748.599792 1127.648560,738.790222 1123.874512,729.023132 
	C1119.152222,716.801270 1119.109009,716.987122 1105.905396,716.659119 
	C1101.790405,716.556824 1099.800293,717.707886 1098.333374,721.705322 
	C1088.940430,747.301636 1079.253296,772.789978 1069.677490,798.319336 
	C1068.658569,801.035645 1067.733765,803.787292 1066.524414,807.202942 
	C1073.228394,807.202942 1079.035889,807.362549 1084.820190,807.066711 
	C1085.962402,807.008301 1087.487305,805.400146 1088.023315,804.156616 
	C1089.863525,799.887085 1091.136963,795.367249 1093.076782,791.150024 
	C1093.716919,789.758728 1095.694336,788.134460 1097.109985,788.086548 
	C1105.923218,787.788452 1114.753418,787.792175 1123.570068,788.012878 
	C1124.897461,788.046143 1126.828125,789.460693 1127.370728,790.715698 
	C1129.212524,794.976379 1130.429443,799.503662 1132.168579,803.814758 
	C1132.698120,805.128052 1134.095825,806.979858 1135.175659,807.035339 
	C1141.245117,807.347107 1147.338867,807.185669 1154.167358,807.185669 
	C1147.648560,790.595703 1141.464722,774.858582 1135.025879,758.390503 
M373.130524,806.391357 
	C382.725464,809.102478 392.434906,809.644043 402.269257,807.963074 
	C415.472809,805.706055 425.386902,796.528992 426.903931,785.134521 
	C428.835846,770.623779 423.525024,761.361816 409.529144,754.976562 
	C406.963379,753.806030 404.279602,752.896973 401.676178,751.805420 
	C396.474640,749.624512 391.193054,747.601196 386.132568,745.128052 
	C382.401581,743.304626 380.681854,739.543396 382.155457,735.899231 
	C383.240753,733.215210 386.010223,730.208679 388.658447,729.395630 
	C392.622223,728.178833 397.240082,728.104492 401.394043,728.746277 
	C406.550018,729.542786 411.516571,731.565430 417.048584,733.201538 
	C419.231537,729.009949 421.494904,724.663879 423.794434,720.248413 
	C422.732758,719.288757 422.113525,718.422485 421.272095,718.013916 
	C405.267944,710.243347 388.751984,708.478271 372.964233,717.404236 
	C356.836365,726.522461 356.911469,749.886475 372.561523,759.898010 
	C377.268005,762.908813 382.748291,764.712158 387.880493,767.054626 
	C392.704285,769.256226 397.952240,770.851868 402.202576,773.860107 
	C404.591125,775.550598 406.275970,779.464905 406.592560,782.550232 
	C407.012299,786.641357 404.207001,789.882507 400.086456,790.915283 
	C396.437286,791.829956 392.428619,792.958008 388.885773,792.310852 
	C381.173035,790.901917 373.656006,788.421753 365.269226,786.167175 
	C363.097595,789.502991 360.337402,793.742859 356.983154,798.895264 
	C362.574677,801.524963 367.473602,803.829041 373.130524,806.391357 
M577.147644,808.822754 
	C582.772949,806.729980 588.398254,804.637207 593.855103,802.607117 
	C594.539978,803.527039 595.685425,806.660889 597.291077,806.917847 
	C601.788025,807.637390 606.475159,807.168518 611.065674,807.168518 
	C611.065674,775.928101 611.065674,745.232544 611.065674,713.995422 
	C605.733826,714.700500 600.997742,715.404541 596.241821,715.928223 
	C593.101318,716.274109 591.703430,717.461365 591.828552,720.989136 
	C592.122925,729.293152 591.922852,737.614685 591.922852,746.293762 
	C590.410278,745.908630 589.315613,745.644104 588.228638,745.351013 
	C569.352844,740.262329 551.128052,751.975586 548.401917,771.312988 
	C546.033020,788.116516 553.098938,809.277893 577.147644,808.822754 
M834.426941,790.439636 
	C820.464172,784.656067 813.939209,765.918762 819.994629,748.961426 
	C822.124329,742.997681 825.219299,737.577942 831.166077,734.852478 
	C842.569031,729.626465 853.765259,731.184753 864.596680,737.365967 
	C867.369629,732.910278 869.888123,728.863464 872.338684,724.925720 
	C858.208252,709.888428 824.849243,712.265015 808.934326,729.064575 
	C791.765503,747.187988 793.499939,783.131104 812.295410,798.717163 
	C828.645630,812.275635 862.657837,812.297485 872.571472,798.688110 
	C871.245911,796.057739 869.728271,793.463806 868.602356,790.709717 
	C867.086853,787.002747 865.155273,786.292542 861.388367,788.137268 
	C853.059265,792.216125 844.247009,793.313477 834.426941,790.439636 
M912.779541,770.118835 
	C903.454285,770.103699 894.084900,769.825500 885.444702,774.279602 
	C877.718689,778.262390 874.403320,784.920593 875.710388,793.745728 
	C876.800903,801.108765 882.347961,806.413879 890.373962,808.065186 
	C899.442749,809.931030 907.495605,807.946411 914.009583,802.490601 
	C915.774597,804.169617 917.239807,806.780273 919.039734,807.036072 
	C923.541077,807.675720 928.194214,807.247131 932.474915,807.247131 
	C932.474915,793.456177 932.716858,780.325195 932.377625,767.209290 
	C932.195251,760.157043 929.440063,753.837219 923.583313,749.453796 
	C913.651123,742.020142 889.966858,742.912354 879.982727,751.084595 
	C881.612915,754.949036 883.268555,758.873901 884.624329,762.087891 
	C891.381531,760.994629 897.519104,759.406860 903.710938,759.155273 
	C910.911316,758.862671 913.627075,762.309753 912.779541,770.118835 
M500.977997,760.505005 
	C500.977997,755.734009 500.977997,750.963013 500.977997,746.158936 
	C494.227112,746.158936 488.183167,746.158936 482.090302,746.158936 
	C482.090302,760.877808 481.585968,775.207825 482.247833,789.483765 
	C482.789490,801.166382 488.831146,806.720032 500.358795,808.391846 
	C508.749237,809.608582 516.068420,807.142334 522.587646,801.803589 
	C523.281738,803.740601 523.875977,805.398743 524.473877,807.067261 
	C530.057556,807.067261 535.330505,807.067261 540.663269,807.067261 
	C540.663269,786.550110 540.663269,766.317749 540.663269,746.176392 
	C534.219482,746.176392 528.149658,746.176392 522.245422,746.176392 
	C521.957214,746.865112 521.720337,747.167542 521.719666,747.470581 
	C521.691711,759.965698 521.698181,772.460999 521.655640,784.956055 
	C521.651245,786.245422 521.745544,787.750427 521.148865,788.782349 
	C519.309265,791.963867 511.176331,794.332336 507.018616,793.201233 
	C501.977325,791.829834 501.031799,787.922485 501.002075,783.501892 
	C500.952759,776.169495 500.984131,768.836487 500.977997,760.505005 
M744.031921,782.500122 
	C744.031311,776.841919 744.226257,771.175598 743.990540,765.527222 
	C743.460388,752.825012 737.557434,746.360352 725.052429,744.489685 
	C716.777161,743.251831 709.820557,746.454224 703.809814,751.003235 
	C702.514282,749.172363 701.491394,746.252441 700.155029,746.101074 
	C695.155273,745.534851 690.053040,745.874573 685.112976,745.874573 
	C685.112976,766.762695 685.112976,786.804871 685.112976,806.969116 
	C691.646545,806.969116 697.697266,806.969116 704.097778,806.969116 
	C704.097778,794.158203 704.104797,781.704102 704.094604,769.250000 
	C704.089905,763.475342 707.113892,760.552002 713.703369,760.010193 
	C720.258057,759.471313 724.055969,762.033508 724.572693,768.099426 
	C725.051453,773.719421 724.854919,779.400146 724.885864,785.054443 
	C724.925598,792.315308 724.895508,799.576599 724.895508,807.109131 
	C731.531189,807.109131 737.608032,807.109131 744.032043,807.109131 
	C744.032043,799.070984 744.032043,791.285461 744.031921,782.500122 
M645.597961,782.007874 
	C654.762024,782.016602 663.932068,781.836609 673.087219,782.125854 
	C676.805969,782.243408 678.060608,780.833313 678.417786,777.412170 
	C679.715637,764.982483 672.345215,751.127258 661.955872,746.777588 
	C649.012634,741.358643 634.124390,744.756042 625.596558,755.074341 
	C617.102356,765.351929 615.431824,781.483154 621.659363,793.094482 
	C627.297363,803.606567 640.874268,810.013611 654.560486,808.666626 
	C662.167786,807.917908 669.683655,806.940063 676.070862,801.858948 
	C674.090637,797.755371 672.247620,793.935974 670.419006,790.146545 
	C652.236145,797.948914 638.082947,794.367371 637.655457,782.007446 
	C639.986938,782.007446 642.312439,782.007446 645.597961,782.007874 
M1004.314209,788.982300 
	C1003.385620,786.831787 1002.457092,784.681274 1001.227783,781.834351 
	C1015.457947,781.834351 1028.568970,781.834351 1042.103149,781.834351 
	C1042.103149,777.227173 1042.554688,772.920532 1042.016724,768.741272 
	C1040.537354,757.248047 1034.924561,748.563477 1023.222473,745.476929 
	C1011.335999,742.341675 1000.299011,744.351807 991.592041,753.672852 
	C982.197205,763.730103 979.973877,779.774719 986.209351,792.353577 
	C992.595703,805.236633 1004.181885,808.907593 1017.434631,808.616333 
	C1025.543945,808.438171 1033.550903,807.187683 1040.577026,801.819580 
	C1038.690674,797.759705 1036.916992,793.942383 1035.271606,790.401001 
	C1024.396362,794.080322 1014.421814,797.692993 1004.314209,788.982300 
M751.827637,759.594360 
	C753.743103,759.698730 755.658630,759.803162 758.082397,759.935303 
	C758.082397,770.593628 757.822205,780.735596 758.159302,790.857605 
	C758.466003,800.068481 762.158447,805.017151 769.902893,807.452515 
	C777.626160,809.881287 785.363953,809.038818 792.985535,806.816223 
	C794.136475,806.480591 796.056213,805.244385 795.960938,804.735229 
	C795.235657,800.859070 794.355042,796.952087 792.838867,793.341919 
	C792.581970,792.730164 789.005798,793.310120 787.021240,793.664795 
	C781.479187,794.655090 777.307922,792.739502 777.135010,788.171631 
	C776.777832,778.736267 777.027466,769.277954 777.027466,759.266663 
	C782.455872,759.266663 787.533813,759.266663 792.758911,759.266663 
	C792.758911,754.495239 792.758911,750.300171 792.758911,745.678223 
	C787.340088,745.678223 782.398193,745.678223 776.902222,745.678223 
	C776.902222,738.694397 776.902222,732.134277 776.902222,725.070129 
	C770.286499,726.128174 764.309143,727.084106 757.937866,728.103027 
	C757.937866,734.083801 757.937866,739.683899 757.937866,745.543823 
	C754.461182,745.805481 751.414429,746.034790 748.036682,746.289062 
	C748.036682,750.010925 747.801758,753.340881 748.169312,756.602844 
	C748.291382,757.686584 749.960693,758.595947 751.827637,759.594360 
M458.084167,788.779541 
	C458.084167,779.164307 458.084167,769.549072 458.084167,759.368774 
	C462.422791,759.368774 466.397308,759.560364 470.333832,759.257690 
	C471.592743,759.160889 473.681549,757.863342 473.790009,756.929321 
	C474.200928,753.390076 473.955353,749.774597 473.955353,745.730835 
	C468.307373,745.730835 463.377411,745.730835 457.944550,745.730835 
	C457.944550,738.885986 457.944550,732.492432 457.944550,725.329224 
	C451.353027,726.314453 445.380341,727.207153 438.980408,728.163696 
	C438.980408,734.124390 438.980408,739.713989 438.980408,745.587341 
	C435.461792,745.802551 432.407074,745.989380 429.185303,746.186462 
	C429.185303,750.683472 429.185303,754.785400 429.185303,759.193298 
	C432.415009,759.459351 435.489624,759.712646 438.997681,760.001648 
	C438.997681,765.257874 438.995972,770.223267 438.998138,775.188599 
	C439.000305,780.182495 438.798767,785.186951 439.052734,790.168152 
	C439.630585,801.501831 444.911041,807.328796 456.169464,808.437988 
	C460.898804,808.903931 465.816742,808.507019 470.536011,807.774597 
	C477.427979,806.704956 477.859619,805.646057 475.937012,798.830933 
	C475.364288,796.800903 474.700806,794.796509 474.049866,792.686279 
	C468.266754,792.963501 461.989990,797.229553 458.084167,788.779541 
M1177.031738,750.500000 
	C1177.034180,743.676331 1177.082153,736.852173 1177.022339,730.029053 
	C1176.984619,725.727112 1178.429077,719.510498 1176.230713,717.624878 
	C1173.656494,715.416931 1167.839966,717.107300 1163.442383,716.873474 
	C1159.147949,716.644958 1157.806396,718.322693 1157.837036,722.708801 
	C1158.020996,749.003174 1157.898926,775.299805 1157.879761,801.595642 
	C1157.878540,803.354309 1157.879639,805.112976 1157.879639,806.780518 
	C1164.659790,806.780518 1170.703247,806.780518 1177.030884,806.780518 
	C1177.030884,788.075806 1177.030884,769.787903 1177.031738,750.500000 
M980.313843,761.232422 
	C981.190369,758.374634 982.075195,755.519470 982.941528,752.658569 
	C984.634399,747.068665 983.818542,745.775452 977.977600,744.809570 
	C970.414368,743.558838 964.919250,747.064575 960.390930,752.990601 
	C959.681091,750.357605 959.094238,748.180847 958.475281,745.884827 
	C954.024292,745.884827 949.874390,746.020264 945.738220,745.839661 
	C942.731140,745.708313 941.802246,746.630127 941.840210,749.817444 
	C942.046204,767.122925 941.966431,784.431824 941.984497,801.739502 
	C941.986328,803.483337 941.984802,805.227173 941.984802,806.968506 
	C948.755127,806.968506 954.808472,806.968506 961.183228,806.968506 
	C961.183228,795.770325 961.158813,784.975098 961.191284,774.180054 
	C961.215332,766.201050 965.783569,761.674866 973.818909,761.642090 
	C975.804382,761.633972 977.790588,761.808716 980.313843,761.232422 
M507.035614,348.319183 
	C504.919312,329.980591 502.803040,311.641968 500.686737,293.303345 
	C500.147583,293.325104 499.608429,293.346863 499.069305,293.368591 
	C495.177032,328.753906 491.284760,364.139191 487.374878,399.684814 
	C496.159241,399.684814 504.349670,399.684814 512.751770,399.684814 
	C510.847351,382.589722 508.988800,365.906464 507.035614,348.319183 
M755.457458,610.839417 
	C751.733032,613.401794 748.008606,615.964172 744.281311,618.528503 
	C752.852722,629.901062 760.716919,640.335205 768.909424,651.204956 
	C777.176453,640.189148 785.099976,629.631042 792.951660,619.168640 
	C784.004883,608.698486 770.053711,605.540833 755.457458,610.839417 
z"/>
<path fill="#2C2F6D" opacity="1.000000" stroke="none" 
	d="
M769.005615,344.648651 
	C748.385925,345.426086 727.718201,345.569580 707.157349,347.124725 
	C673.605408,349.662354 640.139343,353.335876 608.256287,365.115295 
	C600.831848,367.858337 593.830627,371.746552 586.426270,375.205170 
	C586.374817,374.544220 586.200195,373.341888 586.199402,372.139435 
	C586.181580,345.982819 586.582336,319.817230 585.997375,293.673676 
	C585.739563,282.149963 590.894592,274.651154 599.866333,268.995514 
	C612.544067,261.003693 626.627930,256.385956 641.100952,253.016373 
	C670.545166,246.161285 700.472290,242.934921 730.640137,241.831406 
	C743.112122,241.375183 755.596802,241.264633 768.531006,241.534424 
	C768.992737,276.264221 768.999146,310.456421 769.005615,344.648651 
z"/>
<path fill="#28272D" opacity="1.000000" stroke="none" 
	d="
M769.468384,344.731445 
	C768.999146,310.456421 768.992737,276.264221 768.993835,241.613510 
	C793.914246,242.230560 818.924683,242.297806 843.709473,244.696671 
	C863.990967,246.659637 884.160828,250.704880 904.070679,255.198090 
	C914.460938,257.542938 924.453735,262.285431 934.138428,266.956207 
	C945.780151,272.570770 952.057312,281.511841 951.595947,295.569641 
	C950.771240,320.697601 951.311157,345.870361 951.281006,371.024414 
	C951.279114,372.611389 951.280762,374.198364 951.280762,376.236115 
	C926.121887,360.029938 898.083130,355.337463 869.988647,351.120117 
	C836.838257,346.143799 803.431213,344.581360 769.468384,344.731445 
z"/>
<path fill="#2B2E6C" opacity="1.000000" stroke="none" 
	d="
M501.126099,258.061707 
	C496.274017,256.033081 491.486237,253.829544 486.555115,252.015793 
	C478.667297,249.114548 470.684357,246.471985 461.601318,243.324997 
	C468.919556,240.669479 475.108734,238.355789 481.343353,236.171875 
	C543.818848,214.287491 606.298828,192.416092 668.783752,170.558777 
	C701.910461,158.971024 735.049316,147.418198 768.570801,136.384964 
	C768.954346,167.307480 768.949646,197.694672 768.945007,228.081848 
	C746.679932,229.037735 724.381042,229.510742 702.157715,231.064224 
	C669.888428,233.319931 637.937561,237.953568 607.386658,249.161850 
	C598.886658,252.280258 590.775940,256.748657 582.987427,261.430847 
	C576.035034,265.610382 570.768677,271.696533 568.748901,280.621338 
	C546.593323,273.049713 524.669617,265.557373 502.162842,258.061401 
	C501.579773,258.057831 501.126099,258.061707 501.126099,258.061707 
z"/>
<path fill="#29272D" opacity="1.000000" stroke="none" 
	d="
M769.408447,228.180481 
	C768.949646,197.694672 768.954346,167.307480 768.955017,136.450256 
	C783.555359,140.974014 798.190857,145.878525 812.758789,150.976273 
	C899.342773,181.274597 985.911255,211.617264 1072.483032,241.950455 
	C1073.398682,242.271255 1074.288818,242.664764 1076.095825,243.385040 
	C1039.966675,256.006348 1004.674988,268.335052 969.216675,280.722015 
	C962.437683,260.424377 944.743042,254.325851 927.582947,248.162933 
	C901.136108,238.664734 873.549255,234.047302 845.619263,232.058273 
	C820.408264,230.262863 795.123840,229.498291 769.408447,228.180481 
z"/>
<path fill="#33B8AA" opacity="1.000000" stroke="none" 
	d="
M940.476685,425.374573 
	C892.861084,488.166748 845.474548,550.667725 797.905457,613.409485 
	C793.776489,610.347168 789.948059,607.507751 785.377686,604.118103 
	C787.369202,595.865234 789.498047,587.030151 791.633240,578.196716 
	C804.262329,525.949951 816.895142,473.704010 829.515442,421.455109 
	C830.023560,419.351685 830.784363,417.226257 830.812805,415.102814 
	C831.125671,391.826263 853.640808,369.972260 881.082703,367.243683 
	C911.051025,364.263916 938.842468,385.389679 943.967102,415.218903 
	C944.683777,419.390381 943.229309,422.272522 940.476685,425.374573 
z"/>
<path fill="#32B8A9" opacity="1.000000" stroke="none" 
	d="
M599.235352,427.768799 
	C592.401855,422.220703 593.349182,415.792694 595.561768,408.696472 
	C608.468628,367.300690 658.590454,353.177277 690.704163,382.276794 
	C699.342224,390.104156 704.420044,400.016876 706.663696,411.979767 
	C710.401428,431.909210 715.667847,451.556152 720.430176,471.288361 
	C730.811890,514.304016 741.260559,557.303589 751.759155,600.290894 
	C752.499939,603.323853 751.976440,605.120544 749.088806,606.751648 
	C745.946045,608.526733 743.242126,611.078613 740.044006,613.523376 
	C693.108215,551.599060 646.284302,489.822479 599.235352,427.768799 
z"/>
<path fill="#33B8AA" opacity="1.000000" stroke="none" 
	d="
M757.206909,595.768188 
	C743.512024,539.127686 729.565308,482.965576 716.525391,426.593628 
	C712.254089,408.128540 721.854065,386.832153 740.410156,375.537384 
	C770.808716,357.034363 811.898804,372.423218 820.382080,405.633240 
	C822.687256,414.657745 822.401184,423.580627 820.147095,432.731750 
	C806.622559,487.638733 793.376648,542.614380 780.025269,597.564026 
	C779.679810,598.986084 779.195557,600.374512 778.848450,601.536316 
	C772.126221,601.536316 765.720642,601.536316 758.979736,601.536316 
	C758.475708,599.916931 757.891846,598.040955 757.206909,595.768188 
z"/>
<path fill="#31BBAB" opacity="1.000000" stroke="none" 
	d="
M1135.153442,758.755981 
	C1141.464722,774.858582 1147.648560,790.595703 1154.167358,807.185669 
	C1147.338867,807.185669 1141.245117,807.347107 1135.175659,807.035339 
	C1134.095825,806.979858 1132.698120,805.128052 1132.168579,803.814758 
	C1130.429443,799.503662 1129.212524,794.976379 1127.370728,790.715698 
	C1126.828125,789.460693 1124.897461,788.046143 1123.570068,788.012878 
	C1114.753418,787.792175 1105.923218,787.788452 1097.109985,788.086548 
	C1095.694336,788.134460 1093.716919,789.758728 1093.076782,791.150024 
	C1091.136963,795.367249 1089.863525,799.887085 1088.023315,804.156616 
	C1087.487305,805.400146 1085.962402,807.008301 1084.820190,807.066711 
	C1079.035889,807.362549 1073.228394,807.202942 1066.524414,807.202942 
	C1067.733765,803.787292 1068.658569,801.035645 1069.677490,798.319336 
	C1079.253296,772.789978 1088.940430,747.301636 1098.333374,721.705322 
	C1099.800293,717.707886 1101.790405,716.556824 1105.905396,716.659119 
	C1119.109009,716.987122 1119.152222,716.801270 1123.874512,729.023132 
	C1127.648560,738.790222 1131.312866,748.599792 1135.153442,758.755981 
M1104.012329,758.512573 
	C1102.771118,762.446045 1101.529907,766.379578 1100.186279,770.637451 
	C1106.973022,770.637451 1113.271362,770.637451 1120.106689,770.637451 
	C1116.636963,761.211060 1113.368774,752.332092 1109.765747,742.543640 
	C1107.639282,748.395386 1105.938232,753.076538 1104.012329,758.512573 
z"/>
<path fill="#273A70" opacity="1.000000" stroke="none" 
	d="
M372.751526,806.262207 
	C367.473602,803.829041 362.574677,801.524963 356.983154,798.895264 
	C360.337402,793.742859 363.097595,789.502991 365.269226,786.167175 
	C373.656006,788.421753 381.173035,790.901917 388.885773,792.310852 
	C392.428619,792.958008 396.437286,791.829956 400.086456,790.915283 
	C404.207001,789.882507 407.012299,786.641357 406.592560,782.550232 
	C406.275970,779.464905 404.591125,775.550598 402.202576,773.860107 
	C397.952240,770.851868 392.704285,769.256226 387.880493,767.054626 
	C382.748291,764.712158 377.268005,762.908813 372.561523,759.898010 
	C356.911469,749.886475 356.836365,726.522461 372.964233,717.404236 
	C388.751984,708.478271 405.267944,710.243347 421.272095,718.013916 
	C422.113525,718.422485 422.732758,719.288757 423.794434,720.248413 
	C421.494904,724.663879 419.231537,729.009949 417.048584,733.201538 
	C411.516571,731.565430 406.550018,729.542786 401.394043,728.746277 
	C397.240082,728.104492 392.622223,728.178833 388.658447,729.395630 
	C386.010223,730.208679 383.240753,733.215210 382.155457,735.899231 
	C380.681854,739.543396 382.401581,743.304626 386.132568,745.128052 
	C391.193054,747.601196 396.474640,749.624512 401.676178,751.805420 
	C404.279602,752.896973 406.963379,753.806030 409.529144,754.976562 
	C423.525024,761.361816 428.835846,770.623779 426.903931,785.134521 
	C425.386902,796.528992 415.472809,805.706055 402.269257,807.963074 
	C392.434906,809.644043 382.725464,809.102478 372.751526,806.262207 
z"/>
<path fill="#273A70" opacity="1.000000" stroke="none" 
	d="
M576.709961,808.857422 
	C553.098938,809.277893 546.033020,788.116516 548.401917,771.312988 
	C551.128052,751.975586 569.352844,740.262329 588.228638,745.351013 
	C589.315613,745.644104 590.410278,745.908630 591.922852,746.293762 
	C591.922852,737.614685 592.122925,729.293152 591.828552,720.989136 
	C591.703430,717.461365 593.101318,716.274109 596.241821,715.928223 
	C600.997742,715.404541 605.733826,714.700500 611.065674,713.995422 
	C611.065674,745.232544 611.065674,775.928101 611.065674,807.168518 
	C606.475159,807.168518 601.788025,807.637390 597.291077,806.917847 
	C595.685425,806.660889 594.539978,803.527039 593.855103,802.607117 
	C588.398254,804.637207 582.772949,806.729980 576.709961,808.857422 
M572.543457,791.047058 
	C578.806458,794.824097 584.548218,794.849365 589.660950,790.806946 
	C590.788635,789.915405 591.912476,788.217773 591.940247,786.868713 
	C592.100891,779.059570 591.970276,771.242859 591.829834,763.430725 
	C591.811462,762.409851 591.482300,760.951782 590.768982,760.456055 
	C584.843384,756.337891 572.968079,759.559204 569.993530,766.498657 
	C566.487549,774.677917 566.298035,782.945984 572.543457,791.047058 
z"/>
<path fill="#27386F" opacity="1.000000" stroke="none" 
	d="
M834.794434,790.604614 
	C844.247009,793.313477 853.059265,792.216125 861.388367,788.137268 
	C865.155273,786.292542 867.086853,787.002747 868.602356,790.709717 
	C869.728271,793.463806 871.245911,796.057739 872.571472,798.688110 
	C862.657837,812.297485 828.645630,812.275635 812.295410,798.717163 
	C793.499939,783.131104 791.765503,747.187988 808.934326,729.064575 
	C824.849243,712.265015 858.208252,709.888428 872.338684,724.925720 
	C869.888123,728.863464 867.369629,732.910278 864.596680,737.365967 
	C853.765259,731.184753 842.569031,729.626465 831.166077,734.852478 
	C825.219299,737.577942 822.124329,742.997681 819.994629,748.961426 
	C813.939209,765.918762 820.464172,784.656067 834.794434,790.604614 
z"/>
<path fill="#293B71" opacity="1.000000" stroke="none" 
	d="
M913.167358,769.930786 
	C913.627075,762.309753 910.911316,758.862671 903.710938,759.155273 
	C897.519104,759.406860 891.381531,760.994629 884.624329,762.087891 
	C883.268555,758.873901 881.612915,754.949036 879.982727,751.084595 
	C889.966858,742.912354 913.651123,742.020142 923.583313,749.453796 
	C929.440063,753.837219 932.195251,760.157043 932.377625,767.209290 
	C932.716858,780.325195 932.474915,793.456177 932.474915,807.247131 
	C928.194214,807.247131 923.541077,807.675720 919.039734,807.036072 
	C917.239807,806.780273 915.774597,804.169617 914.009583,802.490601 
	C907.495605,807.946411 899.442749,809.931030 890.373962,808.065186 
	C882.347961,806.413879 876.800903,801.108765 875.710388,793.745728 
	C874.403320,784.920593 877.718689,778.262390 885.444702,774.279602 
	C894.084900,769.825500 903.454285,770.103699 913.167358,769.930786 
M913.838318,789.680176 
	C913.838318,786.939514 913.838318,784.198792 913.838318,780.625977 
	C908.333740,781.343445 903.543884,781.290222 899.312561,782.801208 
	C897.151672,783.572876 894.940857,787.022278 894.642517,789.489868 
	C894.257080,792.677795 897.065674,794.624695 900.446045,795.171265 
	C905.717346,796.023560 909.854614,793.980164 913.838318,789.680176 
z"/>
<path fill="#27386F" opacity="1.000000" stroke="none" 
	d="
M500.979767,761.004395 
	C500.984131,768.836487 500.952759,776.169495 501.002075,783.501892 
	C501.031799,787.922485 501.977325,791.829834 507.018616,793.201233 
	C511.176331,794.332336 519.309265,791.963867 521.148865,788.782349 
	C521.745544,787.750427 521.651245,786.245422 521.655640,784.956055 
	C521.698181,772.460999 521.691711,759.965698 521.719666,747.470581 
	C521.720337,747.167542 521.957214,746.865112 522.245422,746.176392 
	C528.149658,746.176392 534.219482,746.176392 540.663269,746.176392 
	C540.663269,766.317749 540.663269,786.550110 540.663269,807.067261 
	C535.330505,807.067261 530.057556,807.067261 524.473877,807.067261 
	C523.875977,805.398743 523.281738,803.740601 522.587646,801.803589 
	C516.068420,807.142334 508.749237,809.608582 500.358795,808.391846 
	C488.831146,806.720032 482.789490,801.166382 482.247833,789.483765 
	C481.585968,775.207825 482.090302,760.877808 482.090302,746.158936 
	C488.183167,746.158936 494.227112,746.158936 500.977997,746.158936 
	C500.977997,750.963013 500.977997,755.734009 500.979767,761.004395 
z"/>
<path fill="#25376E" opacity="1.000000" stroke="none" 
	d="
M744.031982,783.000061 
	C744.032043,791.285461 744.032043,799.070984 744.032043,807.109131 
	C737.608032,807.109131 731.531189,807.109131 724.895508,807.109131 
	C724.895508,799.576599 724.925598,792.315308 724.885864,785.054443 
	C724.854919,779.400146 725.051453,773.719421 724.572693,768.099426 
	C724.055969,762.033508 720.258057,759.471313 713.703369,760.010193 
	C707.113892,760.552002 704.089905,763.475342 704.094604,769.250000 
	C704.104797,781.704102 704.097778,794.158203 704.097778,806.969116 
	C697.697266,806.969116 691.646545,806.969116 685.112976,806.969116 
	C685.112976,786.804871 685.112976,766.762695 685.112976,745.874573 
	C690.053040,745.874573 695.155273,745.534851 700.155029,746.101074 
	C701.491394,746.252441 702.514282,749.172363 703.809814,751.003235 
	C709.820557,746.454224 716.777161,743.251831 725.052429,744.489685 
	C737.557434,746.360352 743.460388,752.825012 743.990540,765.527222 
	C744.226257,771.175598 744.031311,776.841919 744.031982,783.000061 
z"/>
<path fill="#283B71" opacity="1.000000" stroke="none" 
	d="
M645.117920,782.007690 
	C642.312439,782.007446 639.986938,782.007446 637.655457,782.007446 
	C638.082947,794.367371 652.236145,797.948914 670.419006,790.146545 
	C672.247620,793.935974 674.090637,797.755371 676.070862,801.858948 
	C669.683655,806.940063 662.167786,807.917908 654.560486,808.666626 
	C640.874268,810.013611 627.297363,803.606567 621.659363,793.094482 
	C615.431824,781.483154 617.102356,765.351929 625.596558,755.074341 
	C634.124390,744.756042 649.012634,741.358643 661.955872,746.777588 
	C672.345215,751.127258 679.715637,764.982483 678.417786,777.412170 
	C678.060608,780.833313 676.805969,782.243408 673.087219,782.125854 
	C663.932068,781.836609 654.762024,782.016602 645.117920,782.007690 
M637.363892,768.163025 
	C637.622192,768.814575 637.872803,770.031677 638.139832,770.035278 
	C645.653198,770.137756 653.168213,770.117615 660.711243,770.117615 
	C660.136963,762.448059 657.264587,758.933105 651.333130,758.061707 
	C644.887939,757.114807 640.021667,760.419861 637.363892,768.163025 
z"/>
<path fill="#273A70" opacity="1.000000" stroke="none" 
	d="
M1004.566772,789.271484 
	C1014.421814,797.692993 1024.396362,794.080322 1035.271606,790.401001 
	C1036.916992,793.942383 1038.690674,797.759705 1040.577026,801.819580 
	C1033.550903,807.187683 1025.543945,808.438171 1017.434631,808.616333 
	C1004.181885,808.907593 992.595703,805.236633 986.209351,792.353577 
	C979.973877,779.774719 982.197205,763.730103 991.592041,753.672852 
	C1000.299011,744.351807 1011.335999,742.341675 1023.222473,745.476929 
	C1034.924561,748.563477 1040.537354,757.248047 1042.016724,768.741272 
	C1042.554688,772.920532 1042.103149,777.227173 1042.103149,781.834351 
	C1028.568970,781.834351 1015.457947,781.834351 1001.227783,781.834351 
	C1002.457092,784.681274 1003.385620,786.831787 1004.566772,789.271484 
M1025.355103,768.841492 
	C1024.390259,761.127686 1020.509521,757.562927 1013.438965,757.895569 
	C1006.880737,758.204163 1002.721619,762.755188 1002.523621,769.635986 
	C1010.082153,769.635986 1017.644165,769.635986 1025.355103,768.841492 
z"/>
<path fill="#27386F" opacity="1.000000" stroke="none" 
	d="
M751.375122,759.589722 
	C749.960693,758.595947 748.291382,757.686584 748.169312,756.602844 
	C747.801758,753.340881 748.036682,750.010925 748.036682,746.289062 
	C751.414429,746.034790 754.461182,745.805481 757.937866,745.543823 
	C757.937866,739.683899 757.937866,734.083801 757.937866,728.103027 
	C764.309143,727.084106 770.286499,726.128174 776.902222,725.070129 
	C776.902222,732.134277 776.902222,738.694397 776.902222,745.678223 
	C782.398193,745.678223 787.340088,745.678223 792.758911,745.678223 
	C792.758911,750.300171 792.758911,754.495239 792.758911,759.266663 
	C787.533813,759.266663 782.455872,759.266663 777.027466,759.266663 
	C777.027466,769.277954 776.777832,778.736267 777.135010,788.171631 
	C777.307922,792.739502 781.479187,794.655090 787.021240,793.664795 
	C789.005798,793.310120 792.581970,792.730164 792.838867,793.341919 
	C794.355042,796.952087 795.235657,800.859070 795.960938,804.735229 
	C796.056213,805.244385 794.136475,806.480591 792.985535,806.816223 
	C785.363953,809.038818 777.626160,809.881287 769.902893,807.452515 
	C762.158447,805.017151 758.466003,800.068481 758.159302,790.857605 
	C757.822205,780.735596 758.082397,770.593628 758.082397,759.935303 
	C755.658630,759.803162 753.743103,759.698730 751.375122,759.589722 
z"/>
<path fill="#273A70" opacity="1.000000" stroke="none" 
	d="
M458.171387,789.202515 
	C461.989990,797.229553 468.266754,792.963501 474.049866,792.686279 
	C474.700806,794.796509 475.364288,796.800903 475.937012,798.830933 
	C477.859619,805.646057 477.427979,806.704956 470.536011,807.774597 
	C465.816742,808.507019 460.898804,808.903931 456.169464,808.437988 
	C444.911041,807.328796 439.630585,801.501831 439.052734,790.168152 
	C438.798767,785.186951 439.000305,780.182495 438.998138,775.188599 
	C438.995972,770.223267 438.997681,765.257874 438.997681,760.001648 
	C435.489624,759.712646 432.415009,759.459351 429.185303,759.193298 
	C429.185303,754.785400 429.185303,750.683472 429.185303,746.186462 
	C432.407074,745.989380 435.461792,745.802551 438.980408,745.587341 
	C438.980408,739.713989 438.980408,734.124390 438.980408,728.163696 
	C445.380341,727.207153 451.353027,726.314453 457.944550,725.329224 
	C457.944550,732.492432 457.944550,738.885986 457.944550,745.730835 
	C463.377411,745.730835 468.307373,745.730835 473.955353,745.730835 
	C473.955353,749.774597 474.200928,753.390076 473.790009,756.929321 
	C473.681549,757.863342 471.592743,759.160889 470.333832,759.257690 
	C466.397308,759.560364 462.422791,759.368774 458.084167,759.368774 
	C458.084167,769.549072 458.084167,779.164307 458.171387,789.202515 
z"/>
<path fill="#2BB7A8" opacity="1.000000" stroke="none" 
	d="
M1177.031250,751.000000 
	C1177.030884,769.787903 1177.030884,788.075806 1177.030884,806.780518 
	C1170.703247,806.780518 1164.659790,806.780518 1157.879639,806.780518 
	C1157.879639,805.112976 1157.878540,803.354309 1157.879761,801.595642 
	C1157.898926,775.299805 1158.020996,749.003174 1157.837036,722.708801 
	C1157.806396,718.322693 1159.147949,716.644958 1163.442383,716.873474 
	C1167.839966,717.107300 1173.656494,715.416931 1176.230713,717.624878 
	C1178.429077,719.510498 1176.984619,725.727112 1177.022339,730.029053 
	C1177.082153,736.852173 1177.034180,743.676331 1177.031250,751.000000 
z"/>
<path fill="#25376E" opacity="1.000000" stroke="none" 
	d="
M980.045166,761.565918 
	C977.790588,761.808716 975.804382,761.633972 973.818909,761.642090 
	C965.783569,761.674866 961.215332,766.201050 961.191284,774.180054 
	C961.158813,784.975098 961.183228,795.770325 961.183228,806.968506 
	C954.808472,806.968506 948.755127,806.968506 941.984802,806.968506 
	C941.984802,805.227173 941.986328,803.483337 941.984497,801.739502 
	C941.966431,784.431824 942.046204,767.122925 941.840210,749.817444 
	C941.802246,746.630127 942.731140,745.708313 945.738220,745.839661 
	C949.874390,746.020264 954.024292,745.884827 958.475281,745.884827 
	C959.094238,748.180847 959.681091,750.357605 960.390930,752.990601 
	C964.919250,747.064575 970.414368,743.558838 977.977600,744.809570 
	C983.818542,745.775452 984.634399,747.068665 982.941528,752.658569 
	C982.075195,755.519470 981.190369,758.374634 980.045166,761.565918 
z"/>
<path fill="#30BAAA" opacity="1.000000" stroke="none" 
	d="
M507.082947,348.771179 
	C508.988800,365.906464 510.847351,382.589722 512.751770,399.684814 
	C504.349670,399.684814 496.159241,399.684814 487.374878,399.684814 
	C491.284760,364.139191 495.177032,328.753906 499.069305,293.368591 
	C499.608429,293.346863 500.147583,293.325104 500.686737,293.303345 
	C502.803040,311.641968 504.919312,329.980591 507.082947,348.771179 
z"/>
<path fill="#28272D" opacity="1.000000" stroke="none" 
	d="
M755.802917,610.673096 
	C770.053711,605.540833 784.004883,608.698486 792.951660,619.168640 
	C785.099976,629.631042 777.176453,640.189148 768.909424,651.204956 
	C760.716919,640.335205 752.852722,629.901062 744.281311,618.528503 
	C748.008606,615.964172 751.733032,613.401794 755.802917,610.673096 
z"/>
<path fill="#2BB7A8" opacity="1.000000" stroke="none" 
	d="
M500.963135,258.390930 
	C501.126099,258.061707 501.579773,258.057831 501.784332,258.155090 
	C501.965179,261.233246 502.128723,263.599457 505.653748,265.281708 
	C509.970947,267.341980 511.337585,273.021606 509.691101,277.454010 
	C508.175354,281.534393 503.558899,284.392731 499.044067,284.046204 
	C494.272888,283.679993 490.631531,280.384918 489.860779,275.736176 
	C489.034790,270.754578 491.151337,266.155212 496.085358,264.663086 
	C499.526459,263.622437 500.281525,261.528168 500.963135,258.390930 
z"/>
<path fill="#FAFAFC" opacity="1.000000" stroke="none" 
	d="
M1104.124756,758.135132 
	C1105.938232,753.076538 1107.639282,748.395386 1109.765747,742.543640 
	C1113.368774,752.332092 1116.636963,761.211060 1120.106689,770.637451 
	C1113.271362,770.637451 1106.973022,770.637451 1100.186279,770.637451 
	C1101.529907,766.379578 1102.771118,762.446045 1104.124756,758.135132 
z"/>
<path fill="#FAFAFC" opacity="1.000000" stroke="none" 
	d="
M572.262573,790.794861 
	C566.298035,782.945984 566.487549,774.677917 569.993530,766.498657 
	C572.968079,759.559204 584.843384,756.337891 590.768982,760.456055 
	C591.482300,760.951782 591.811462,762.409851 591.829834,763.430725 
	C591.970276,771.242859 592.100891,779.059570 591.940247,786.868713 
	C591.912476,788.217773 590.788635,789.915405 589.660950,790.806946 
	C584.548218,794.849365 578.806458,794.824097 572.262573,790.794861 
z"/>
<path fill="#FAFAFC" opacity="1.000000" stroke="none" 
	d="
M913.649597,790.037720 
	C909.854614,793.980164 905.717346,796.023560 900.446045,795.171265 
	C897.065674,794.624695 894.257080,792.677795 894.642517,789.489868 
	C894.940857,787.022278 897.151672,783.572876 899.312561,782.801208 
	C903.543884,781.290222 908.333740,781.343445 913.838318,780.625977 
	C913.838318,784.198792 913.838318,786.939514 913.649597,790.037720 
z"/>
<path fill="#FAFAFC" opacity="1.000000" stroke="none" 
	d="
M637.485046,767.773804 
	C640.021667,760.419861 644.887939,757.114807 651.333130,758.061707 
	C657.264587,758.933105 660.136963,762.448059 660.711243,770.117615 
	C653.168213,770.117615 645.653198,770.137756 638.139832,770.035278 
	C637.872803,770.031677 637.622192,768.814575 637.485046,767.773804 
z"/>
<path fill="#FAFAFC" opacity="1.000000" stroke="none" 
	d="
M1025.280640,769.238770 
	C1017.644165,769.635986 1010.082153,769.635986 1002.523621,769.635986 
	C1002.721619,762.755188 1006.880737,758.204163 1013.438965,757.895569 
	C1020.509521,757.562927 1024.390259,761.127686 1025.280640,769.238770 
z"/>
</svg>